<svg width="24" height="24" viewBox="0 0 24 24" fill="none" xmlns="http://www.w3.org/2000/svg">
<path d="M2.19279 15.8738H4.33325C5.92107 15.8738 7.20825 14.5867 7.20825 12.9988V9.12493H11.0416C12.6294 9.12493 13.9166 7.83775 13.9166 6.24993V1.63219M22.3677 13.9166H16.6271C15.1301 13.9166 13.9166 15.1301 13.9166 16.6272C13.9166 17.3461 14.2022 18.0355 14.7105 18.5438L17.288 21.1214M11.9999 22.5417C17.8219 22.5417 22.5416 17.822 22.5416 12C22.5416 6.17804 17.8219 1.45837 11.9999 1.45837C6.17792 1.45837 1.45825 6.17804 1.45825 12C1.45825 17.822 6.17792 22.5417 11.9999 22.5417Z" stroke="currentColor"/>
</svg>
