<svg width="24" height="24" viewBox="0 0 24 24" fill="none" xmlns="http://www.w3.org/2000/svg">
<path d="M9.43053 20.5693L16.2856 13.7142H20.5715C21.5183 13.7142 22.2858 14.4818 22.2858 15.4285V20.5714C22.2858 21.5182 21.5183 22.2857 20.5715 22.2857H6.00007M9.43053 20.5693C8.64873 21.6114 7.40314 22.2857 6.00007 22.2857M9.43053 20.5693L21.0733 8.92637C21.7427 8.25689 21.7427 7.17147 21.0733 6.50199L17.4976 2.92637C16.8282 2.25689 15.7427 2.25689 15.0733 2.92637L10.2856 7.71408V17.9999M9.43053 20.5693C9.9676 19.8534 10.2856 18.9639 10.2856 17.9999M6.00007 22.2857C3.63314 22.2857 1.71436 20.3669 1.71436 17.9999V3.42852C1.71436 2.48175 2.48188 1.71423 3.42864 1.71423H8.5715C9.51826 1.71423 10.2858 2.48175 10.2858 3.42852L10.2856 17.9999M6.00007 22.2857C8.367 22.2857 10.2856 20.3669 10.2856 17.9999M1.71436 8.57138H10.2858M1.71436 14.5714H10.2858" stroke="currentColor" stroke-linecap="round" stroke-linejoin="round"/>
</svg>
