<svg width="24" height="24" viewBox="0 0 24 24" fill="none" xmlns="http://www.w3.org/2000/svg">
<path d="M12.8399 1.86859L15.5656 7.37144C15.6276 7.51112 15.7251 7.6321 15.8484 7.72234C15.9718 7.81258 16.1166 7.86891 16.2685 7.88573L22.2856 8.77716C22.4598 8.79956 22.624 8.87107 22.7591 8.98332C22.8942 9.09557 22.9947 9.24396 23.0487 9.41113C23.1025 9.57829 23.1078 9.75737 23.0638 9.92741C23.0197 10.0975 22.9282 10.2515 22.7999 10.3714L18.4628 14.6743C18.352 14.7777 18.2689 14.9072 18.2211 15.0509C18.1732 15.1946 18.1619 15.348 18.1885 15.4972L19.2342 21.5486C19.2644 21.7224 19.2454 21.9014 19.179 22.0649C19.1125 22.2285 19.0016 22.3701 18.8588 22.4736C18.7158 22.5773 18.5468 22.6387 18.3706 22.6509C18.1945 22.6632 18.0186 22.6257 17.8628 22.5429L12.4456 19.68C12.3069 19.612 12.1544 19.5765 11.9999 19.5765C11.8454 19.5765 11.6929 19.612 11.5542 19.68L6.13702 22.5429C5.98118 22.6257 5.8052 22.6632 5.62913 22.6509C5.45306 22.6387 5.28394 22.5773 5.14106 22.4736C4.99815 22.3701 4.8872 22.2285 4.82083 22.0649C4.75445 21.9014 4.73532 21.7224 4.76559 21.5486L5.81131 15.4286C5.83781 15.2794 5.8266 15.126 5.7787 14.9823C5.73079 14.8386 5.64771 14.7092 5.53702 14.6057L1.14845 10.3714C1.01862 10.2482 0.927311 10.0899 0.885592 9.91582C0.843873 9.74172 0.853535 9.55925 0.913403 9.39053C0.973273 9.22181 1.08078 9.07407 1.22291 8.9652C1.36503 8.85634 1.53568 8.79102 1.71417 8.77716L7.73131 7.88573C7.88319 7.86891 8.02802 7.81258 8.15134 7.72234C8.27465 7.6321 8.37218 7.51112 8.43417 7.37144L11.1599 1.86859C11.2341 1.70832 11.3526 1.57263 11.5015 1.47753C11.6503 1.38244 11.8233 1.33191 11.9999 1.33191C12.1765 1.33191 12.3494 1.38244 12.4983 1.47753C12.6471 1.57263 12.7657 1.70832 12.8399 1.86859Z" stroke="currentColor" stroke-linecap="round" stroke-linejoin="round"/>
</svg>
