<svg viewBox="0 0 24 24" fill="none" xmlns="http://www.w3.org/2000/svg">
<path d="M1.71436 6.00003H22.2858M7.71436 6.00003V5.14289C7.71436 4.00625 8.16588 2.91615 8.96961 2.11243C9.77333 1.30871 10.8634 0.857178 12.0001 0.857178C13.1367 0.857178 14.2268 1.30871 15.0305 2.11243C15.8343 2.91615 16.2858 4.00625 16.2858 5.14289V6.00003M4.28578 6.00003H19.7144V21.4286C19.7144 21.8832 19.5337 22.3193 19.2122 22.6408C18.8908 22.9622 18.4547 23.1429 18.0001 23.1429H6.00007C5.54541 23.1429 5.10938 22.9622 4.78788 22.6408C4.4664 22.3193 4.28578 21.8832 4.28578 21.4286V6.00003Z" stroke="currentColor" stroke-width="var(--icon-stroke-width)" stroke-linecap="round" stroke-linejoin="round"/>
</svg>
