<svg width="16" height="16" viewBox="0 0 24 24" fill="none" xmlns="http://www.w3.org/2000/svg">
<path d="M14.4244 0.857178H21.4286C22.3754 0.857178 23.1429 1.62469 23.1429 2.57146V9.57568C23.1429 10.0303 22.9622 10.4664 22.6408 10.7878L11.0694 22.3593C10.3999 23.0287 9.31445 23.0287 8.64497 22.3593L1.64077 15.3551C0.971303 14.6856 0.971305 13.6002 1.64078 12.9307L13.2122 1.35928C13.5337 1.03779 13.9697 0.857178 14.4244 0.857178Z" stroke="currentColor" stroke-width="var(--icon-stroke-width)" stroke-linecap="round" stroke-linejoin="round"/>
<path d="M17.5714 7.28575C17.0981 7.28575 16.7143 6.90199 16.7143 6.42861C16.7143 5.95522 17.0981 5.57146 17.5714 5.57146C18.0448 5.57146 18.4286 5.95522 18.4286 6.42861C18.4286 6.90199 18.0448 7.28575 17.5714 7.28575Z" stroke="currentColor" stroke-width="var(--icon-stroke-width)" stroke-linecap="round" stroke-linejoin="round"/>
</svg>
