<svg width="24" height="24" viewBox="0 0 24 24" fill="none" xmlns="http://www.w3.org/2000/svg">
<path d="M8.9963 22.2701C7.9428 22.9507 6.68741 23.2475 5.44121 23.1101C4.19503 22.9728 3.03403 22.41 2.15347 21.5162L1.38364 20.7623C1.04615 20.4167 0.857178 19.9523 0.857178 19.4688C0.857178 18.9852 1.04615 18.521 1.38364 18.1752L4.6511 14.937C4.99342 14.6 5.45417 14.4112 5.93414 14.4112C6.41409 14.4112 6.87485 14.6 7.21716 14.937C7.56237 15.275 8.02598 15.4642 8.50876 15.4642C8.99153 15.4642 9.45513 15.275 9.80033 14.937L14.9325 9.79696C15.1037 9.62798 15.2396 9.4266 15.3324 9.20453C15.4252 8.98245 15.473 8.74413 15.473 8.50339C15.473 8.26265 15.4252 8.02431 15.3324 7.80223C15.2396 7.58016 15.1037 7.37878 14.9325 7.20981C14.596 6.86697 14.4075 6.4055 14.4075 5.92481C14.4075 5.44411 14.596 4.98264 14.9325 4.6398L18.1828 1.38445C18.528 1.04644 18.9916 0.857178 19.4743 0.857178C19.9572 0.857178 20.4208 1.04644 20.766 1.38445L21.5188 2.15546C22.4111 3.03739 22.973 4.20015 23.1101 5.44827C23.2473 6.69638 22.9511 7.9537 22.2713 9.00881C18.7301 14.2358 14.2243 18.7368 8.9963 22.2701Z" stroke="currentColor" stroke-linecap="round" stroke-linejoin="round"/>
</svg>
