<svg viewBox="0 0 24 24" fill="none" xmlns="http://www.w3.org/2000/svg">
<path d="M6.85718 6.85718H17.1429M6.85718 12H13.7143M21.4286 0.857178H2.57146C2.1168 0.857178 1.68077 1.03779 1.35928 1.35928C1.03779 1.68077 0.857178 2.1168 0.857178 2.57146V17.1429C0.857178 17.5975 1.03779 18.0336 1.35928 18.3551C1.68077 18.6765 2.1168 18.8572 2.57146 18.8572H6.00003V23.1429L11.3486 18.8572H21.4286C21.8832 18.8572 22.3193 18.6765 22.6408 18.3551C22.9622 18.0336 23.1429 17.5975 23.1429 17.1429V2.57146C23.1429 2.1168 22.9622 1.68077 22.6408 1.35928C22.3193 1.03779 21.8832 0.857178 21.4286 0.857178Z" stroke="currentColor" stroke-width="var(--icon-stroke-width)" stroke-linecap="round" stroke-linejoin="round"/>
</svg>
