<svg viewBox="0 0 24 24" fill="none" xmlns="http://www.w3.org/2000/svg">
<path d="M3.18237 20.4469C3.18805 20.777 3.28413 21.0993 3.46016 21.3788C3.63618 21.658 3.8854 21.884 4.18076 22.0316C4.4757 22.1982 4.8087 22.2858 5.14746 22.2858C5.48622 22.2858 5.81922 22.1982 6.11416 22.0316L19.8223 13.5531C20.1206 13.4094 20.3723 13.1845 20.5483 12.9042C20.7244 12.6238 20.8178 12.2995 20.8178 11.9684C20.8178 11.6373 20.7244 11.3129 20.5483 11.0326C20.3723 10.7523 20.1206 10.5273 19.8223 10.3836L6.11416 1.96858C5.81922 1.80192 5.48622 1.71436 5.14746 1.71436C4.8087 1.71436 4.4757 1.80192 4.18076 1.96858C3.8854 2.11625 3.63618 2.34208 3.46016 2.62147C3.28413 2.90086 3.18805 3.22317 3.18237 3.55334V20.4469Z" stroke="currentColor" stroke-width="var(--icon-stroke-width)" stroke-linecap="round" stroke-linejoin="round"/>
</svg>
