<svg viewBox="0 0 24 24" fill="none" xmlns="http://www.w3.org/2000/svg">
<path d="M16.7916 9.12504H21.5833V9.49773L17.7499 14.5023V14.875H22.5416M19.8583 19.0266C19.7278 19.1725 19.5931 19.3151 19.454 19.4541C17.4771 21.4311 14.7958 22.5417 11.9999 22.5417C9.2041 22.5417 6.52278 21.4311 4.54584 19.4541C2.56888 17.4772 1.45825 14.7959 1.45825 12C1.45825 9.20422 2.56888 6.52291 4.54584 4.54596C6.52278 2.56902 9.2041 1.45837 11.9999 1.45837C14.7958 1.45837 17.4771 2.56902 19.454 4.54596C19.5931 4.68502 19.7278 4.82757 19.8583 4.9734C18.9001 4.55524 17.8573 4.33337 16.7917 4.33337C14.7583 4.33337 12.8083 5.14111 11.3705 6.57889C9.93272 8.01667 9.12499 9.96672 9.12499 12C9.12499 14.0333 9.93272 15.9834 11.3705 17.4212C12.8083 18.8589 14.7583 19.6667 16.7917 19.6667C17.8573 19.6667 18.9001 19.4449 19.8583 19.0266Z" stroke="currentColor" stroke-width="var(--icon-stroke-width)"/>
</svg>
