<svg width="24" height="24" viewBox="0 0 24 24" fill="none" xmlns="http://www.w3.org/2000/svg">
<path d="M7.71436 1.71436H3.42864C2.48188 1.71436 1.71436 2.48188 1.71436 3.42864V20.5715C1.71436 21.5183 2.48188 22.2858 3.42864 22.2858H7.71436C8.66112 22.2858 9.42864 21.5183 9.42864 20.5715V3.42864C9.42864 2.48188 8.66112 1.71436 7.71436 1.71436Z" stroke="currentColor" stroke-linecap="round" stroke-linejoin="round"/>
<path d="M20.5715 1.71436H16.2858C15.339 1.71436 14.5715 2.48188 14.5715 3.42864V20.5715C14.5715 21.5183 15.339 22.2858 16.2858 22.2858H20.5715C21.5183 22.2858 22.2858 21.5183 22.2858 20.5715V3.42864C22.2858 2.48188 21.5183 1.71436 20.5715 1.71436Z" stroke="currentColor" stroke-linecap="round" stroke-linejoin="round"/>
</svg>
