<svg width="24" height="24" viewBox="0 0 24 24" fill="none" xmlns="http://www.w3.org/2000/svg">
<path d="M12.4262 4.54848L13.8591 7.4311C13.8912 7.50401 13.942 7.56712 14.0064 7.61395C14.0708 7.66078 14.1465 7.68969 14.2257 7.69771L17.4083 8.18093C17.4993 8.19276 17.585 8.23027 17.6555 8.28905C17.7259 8.34782 17.7782 8.42544 17.8061 8.51284C17.8341 8.60021 17.8367 8.69376 17.8133 8.78253C17.7902 8.87129 17.742 8.95159 17.6748 9.01406L15.3254 11.2468C15.2904 11.3137 15.2721 11.388 15.2721 11.4635C15.2721 11.5389 15.2904 11.6133 15.3254 11.6801L15.7753 14.846C15.7945 14.9375 15.7868 15.0326 15.753 15.1198C15.7192 15.207 15.6608 15.2825 15.585 15.3371C15.5092 15.3918 15.4191 15.4233 15.3257 15.4278C15.2323 15.4323 15.1396 15.4096 15.0588 15.3625L12.2262 13.8629C12.1529 13.8298 12.0734 13.8126 11.9929 13.8126C11.9125 13.8126 11.8329 13.8298 11.7596 13.8629L8.92699 15.3625C8.84625 15.4096 8.75355 15.4323 8.66016 15.4278C8.56677 15.4233 8.47668 15.3918 8.40084 15.3371C8.325 15.2825 8.26665 15.207 8.23286 15.1198C8.19907 15.0326 8.1913 14.9375 8.2105 14.846L8.74371 11.6801C8.76663 11.6066 8.77102 11.5286 8.75649 11.453C8.74195 11.3774 8.70895 11.3066 8.6604 11.2468L6.31095 8.99739C6.24864 8.93427 6.20491 8.85521 6.18454 8.76886C6.16418 8.68253 6.16797 8.59226 6.1955 8.50793C6.22303 8.42361 6.27324 8.34849 6.34065 8.29082C6.40803 8.23313 6.48999 8.19511 6.57756 8.18093L9.76013 7.71437C9.83937 7.70635 9.91503 7.67745 9.97944 7.63061C10.0438 7.58378 10.0947 7.52067 10.1267 7.44777L11.5597 4.56514C11.598 4.48354 11.6584 4.41429 11.7341 4.36522C11.8097 4.31616 11.8976 4.28925 11.9877 4.28751C12.0779 4.28578 12.1667 4.3093 12.2442 4.35542C12.3217 4.40153 12.3847 4.46841 12.4262 4.54848Z" stroke="currentColor" stroke-linecap="round" stroke-linejoin="round"/>
<path d="M21.4286 0.857178H2.57146C2.1168 0.857178 1.68077 1.03779 1.35928 1.35928C1.03779 1.68077 0.857178 2.1168 0.857178 2.57146V17.1429C0.857178 17.5975 1.03779 18.0336 1.35928 18.3551C1.68077 18.6765 2.1168 18.8572 2.57146 18.8572H6.00003V23.1429L11.3486 18.8572H21.4286C21.8832 18.8572 22.3193 18.6765 22.6408 18.3551C22.9622 18.0336 23.1429 17.5975 23.1429 17.1429V2.57146C23.1429 2.1168 22.9622 1.68077 22.6408 1.35928C22.3193 1.03779 21.8832 0.857178 21.4286 0.857178Z" stroke="currentColor" stroke-linecap="round" stroke-linejoin="round"/>
</svg>
