<svg width="12" height="12" viewBox="0 0 12 12" fill="none" xmlns="http://www.w3.org/2000/svg">
<path d="M8.16667 4.33333H10.5625V4.51968L8.64583 7.02199V7.20833H11.0417M9.7 9.28413C9.63479 9.35706 9.56741 9.42836 9.49789 9.49789C8.50941 10.4864 7.16875 11.0417 5.77083 11.0417C4.37292 11.0417 3.03227 10.4864 2.04379 9.49789C1.05532 8.50941 0.5 7.16875 0.5 5.77083C0.5 4.37292 1.05532 3.03227 2.04379 2.04379C3.03227 1.05532 4.37292 0.5 5.77083 0.5C7.16875 0.5 8.50941 1.05532 9.49789 2.04379C9.56741 2.11332 9.63479 2.1846 9.7 2.25751C9.22093 2.04843 8.69955 1.9375 8.16672 1.9375C7.15002 1.9375 6.17501 2.34137 5.45612 3.06026C4.73723 3.77915 4.33337 4.75417 4.33337 5.77083C4.33337 6.78748 4.73723 7.76254 5.45612 8.48143C6.17501 9.20028 7.15002 9.60417 8.16672 9.60417C8.69955 9.60417 9.22093 9.49324 9.7 9.28413Z" stroke="#333333"/>
</svg>
