<svg aria-hidden="true" focusable="false" fill="none" xmlns="http://www.w3.org/2000/svg" viewBox="0 0 12.1429 12.1429">
  <path d="M7.35714 3.92857H9.5L7.35714 6.5H9.5M10.3571 7.78571H11.6429L10.3571 9.5H11.6429M8.09484 0.878809C8.4999 1.03677 8.32559 1.63303 7.90386 1.7387C5.97987 2.22079 4.47959 3.97754 4.47959 6.07143C4.47959 8.16532 5.97987 9.92206 7.90386 10.4041C8.32559 10.5098 8.4999 11.1061 8.09484 11.2641C7.46763 11.5086 6.78521 11.6429 6.07143 11.6429C2.99441 11.6429 0.5 9.14849 0.5 6.07143C0.5 2.99441 2.99441 0.5 6.07143 0.5C6.78521 0.5 7.46763 0.634224 8.09484 0.878809Z" stroke="currentColor" stroke-linecap="round" stroke-linejoin="round"/>
</svg>
