<svg width="11" height="12" viewBox="0 0 11 12" fill="none" xmlns="http://www.w3.org/2000/svg">
<path d="M5.29167 11.5208V9.125M5.29167 9.125C6.45091 9.125 7.41787 8.30165 7.63968 7.20785C7.65559 7.20819 7.6715 7.20833 7.6875 7.20833C9.01067 7.20833 10.0833 6.13567 10.0833 4.8125C10.0833 3.48932 9.01067 2.41667 7.6875 2.41667C7.6715 2.41667 7.65559 2.41682 7.63968 2.41714C7.41787 1.32333 6.45091 0.5 5.29167 0.5C4.13242 0.5 3.16547 1.32333 2.94366 2.41714C2.92776 2.41682 2.91181 2.41667 2.89583 2.41667C1.57265 2.41667 0.5 3.48932 0.5 4.8125C0.5 6.13567 1.57265 7.20833 2.89583 7.20833C2.91181 7.20833 2.92776 7.20819 2.94366 7.20785C3.16547 8.30165 4.13242 9.125 5.29167 9.125Z" stroke="#333333"/>
</svg>
