<svg viewBox="0 0 24 24" fill="none" xmlns="http://www.w3.org/2000/svg">
<path d="M9.00004 9.42861C9.00004 7.77175 10.3432 6.42861 12 6.42861C13.6569 6.42861 15 7.77175 15 9.42861C15 11.0855 13.6569 12.4286 12 12.4286V14.1429M12 23.1429C18.1541 23.1429 23.1429 18.1541 23.1429 12C23.1429 5.84601 18.1541 0.857178 12 0.857178C5.84601 0.857178 0.857178 5.84601 0.857178 12C0.857178 18.1541 5.84601 23.1429 12 23.1429ZM12 17.5715C11.7633 17.5715 11.5715 17.3796 11.5715 17.1429C11.5715 16.9062 11.7633 16.7143 12 16.7143C12.2367 16.7143 12.4286 16.9062 12.4286 17.1429C12.4286 17.3796 12.2367 17.5715 12 17.5715Z" stroke="currentColor" stroke-width="var(--icon-stroke-width)" stroke-linecap="round" stroke-linejoin="round"/>
</svg>
