<svg width="24" height="24" viewBox="0 0 24 24" fill="none" xmlns="http://www.w3.org/2000/svg">
<path d="M12 23.1429C18.1541 23.1429 23.1429 18.1541 23.1429 12M12 23.1429C5.84601 23.1429 0.857178 18.1541 0.857178 12M12 23.1429C14.5743 19.9771 16.0752 16.0749 16.2857 12C16.0752 7.9252 14.5743 4.02286 12 0.857178M12 23.1429C9.42573 19.9771 7.92483 16.0749 7.71432 12C7.92483 7.9252 9.42573 4.02286 12 0.857178M23.1429 12C23.1429 5.84601 18.1541 0.857178 12 0.857178M23.1429 12H0.857178M12 0.857178C5.84601 0.857178 0.857178 5.84601 0.857178 12" stroke="currentColor" stroke-linecap="round" stroke-linejoin="round"/>
</svg>
