<svg viewBox="0 0 24 24" fill="none" xmlns="http://www.w3.org/2000/svg">
<path d="M4.28146 14.1772H6.85289L11.0529 20.9315C11.2241 21.2043 11.4617 21.4292 11.7436 21.5852C12.0254 21.741 12.3422 21.823 12.6643 21.823C13.166 21.823 13.6474 21.6248 14.0038 21.2716C14.3602 20.9185 14.5627 20.4388 14.5672 19.9372V15.0344H21.1672C21.4519 15.0325 21.7329 14.9696 21.9911 14.8498C22.2494 14.73 22.479 14.5562 22.6643 14.34C22.8494 14.1238 22.9862 13.8704 23.0651 13.5969C23.1439 13.3233 23.1631 13.036 23.1215 12.7544L21.75 4.28582C21.6916 3.81309 21.4624 3.37798 21.1056 3.06232C20.7489 2.74663 20.2893 2.5721 19.8129 2.57153H4.28146M0.857178 14.1773V2.57153" stroke="currentColor" stroke-width="var(--icon-stroke-width)" stroke-linecap="round" stroke-linejoin="round"/>
</svg>
