<svg width="24" height="24" viewBox="0 0 24 24" fill="none" xmlns="http://www.w3.org/2000/svg">
<path d="M12 16.2858H19.7143C21.6079 16.2858 23.1429 17.8207 23.1429 19.7143C23.1429 21.6079 21.6079 23.1429 19.7143 23.1429H16.2858M12 16.2858L15.2679 19.5535M12 16.2858L15.2679 13.0179M0.857178 6.00003L4.62886 1.474C4.95458 1.08316 5.43706 0.857178 5.94581 0.857178H14.6257C15.1345 0.857178 15.6169 1.08316 15.9426 1.47401L19.7143 6.00003M0.857178 6.00003H19.7143M0.857178 6.00003V16.2857C0.857178 16.7404 1.03779 17.1765 1.35928 17.4979C1.68077 17.8193 2.1168 18 2.57146 18H9.00004M19.7143 6.00003V12.8572M10.2857 0.857178V6.00003" stroke="currentColor" stroke-linecap="round" stroke-linejoin="round"/>
</svg>
