<svg width="16" height="16" viewBox="0 0 24 24" fill="none" xmlns="http://www.w3.org/2000/svg">
<path d="M15.8214 7.65029C11.8947 12.2718 8.38144 17.1912 5.46861 22.5086M4.26709 9.24259C0.838521 14.0708 3.46137 19.601 4.72994 21.7583C4.91598 22.06 5.1658 22.3175 5.46191 22.5127C5.75804 22.7078 6.0933 22.836 6.44423 22.8881C8.92994 23.3162 15.1185 23.7957 18.4442 18.9674C21.7185 14.4132 21.5814 6.40047 21.2899 2.58243C21.2785 2.29798 21.1994 2.02032 21.0595 1.7723C20.9197 1.52428 20.7227 1.31301 20.4849 1.15587C20.2473 0.998721 19.9756 0.900202 19.6924 0.868418C19.409 0.836633 19.1224 0.872491 18.8557 0.973041C15.1699 2.03457 7.48994 4.68835 4.26709 9.24259Z" stroke="currentColor" stroke-width="var(--icon-stroke-width)" stroke-linecap="round" stroke-linejoin="round"/>
</svg>
