<svg width="16" height="16" viewBox="0 0 24 24" fill="none" xmlns="http://www.w3.org/2000/svg">
<path d="M1.71432 16.2858H4.71432C5.50997 16.2858 6.27303 15.9697 6.83565 15.4071C7.39826 14.8445 7.71432 14.0814 7.71432 13.2858V10.7143C7.71432 9.91869 8.03038 9.15562 8.593 8.59301C9.15561 8.0304 9.91867 7.71434 10.7143 7.71434C11.51 7.71434 12.273 7.39826 12.8356 6.83565C13.3983 6.27305 13.7143 5.50999 13.7143 4.71434V0.97719M23.1429 11.8286C22.2845 11.3833 21.3328 11.1482 20.3657 11.1429H16.7143C15.9187 11.1429 15.1556 11.459 14.593 12.0216C14.0304 12.5842 13.7143 13.3472 13.7143 14.1429C13.7143 14.9385 14.0304 15.7016 14.593 16.2642C15.1556 16.8268 15.9187 17.1429 16.7143 17.1429C17.2826 17.1429 17.8278 17.3687 18.2296 17.7705C18.6314 18.1723 18.8572 18.7175 18.8572 19.2858V20.7772M12 23.1429C18.1541 23.1429 23.1429 18.1541 23.1429 12C23.1429 5.84601 18.1541 0.857178 12 0.857178C5.84601 0.857178 0.857178 5.84601 0.857178 12C0.857178 18.1541 5.84601 23.1429 12 23.1429Z" stroke="currentColor" stroke-width="var(--icon-stroke-width)" stroke-linecap="round" stroke-linejoin="round"/>
</svg>
