<svg width="16" height="16" viewBox="0 0 24 24" fill="none" xmlns="http://www.w3.org/2000/svg">
<path fill-rule="evenodd" clip-rule="evenodd" d="M4.54574 19.4541C3.90262 18.811 3.35117 18.0933 2.89982 17.3214L2.84167 17.2208C2.37004 16.3933 2.01244 15.5053 1.77905 14.5813L3.51872 13.5769C3.42426 13.0657 3.3749 12.5386 3.3749 12C3.3749 11.4615 3.42426 10.9344 3.51872 10.4231L1.77905 9.41874C2.01255 8.49431 2.37037 7.60594 2.84234 6.77819L2.89913 6.67982C3.35061 5.90747 3.9023 5.18941 4.54574 4.54596C4.58164 4.51006 4.61777 4.47445 4.65412 4.43914L6.39501 5.44424C7.19227 4.76197 8.11546 4.2226 9.1249 3.86582V1.85795C10.0521 1.59508 11.0189 1.45837 11.9999 1.45837C12.9808 1.45837 13.9477 1.5951 14.8749 1.85799V3.86582C15.8844 4.22262 16.8076 4.762 17.6049 5.44429L19.3457 4.43924C19.382 4.47453 19.418 4.5101 19.454 4.54596C20.8102 5.90223 21.7588 7.59004 22.2207 9.41889L20.4811 10.4232C20.5755 10.9345 20.6249 11.4615 20.6249 12C20.6249 12.5386 20.5755 13.0656 20.4811 13.5769L22.2207 14.5812C21.7588 16.41 20.8102 18.0978 19.454 19.4541C19.418 19.49 19.382 19.5255 19.3457 19.5608L17.6049 18.5558C16.8076 19.238 15.8844 19.7775 14.8749 20.1343V22.1421C13.9477 22.405 12.9808 22.5417 11.9999 22.5417C11.0189 22.5417 10.0521 22.405 9.1249 22.1421V20.1343C8.11546 19.7775 7.19227 19.2381 6.395 18.5558L4.65411 19.5609C4.61776 19.5256 4.58164 19.49 4.54574 19.4541Z" stroke="currentColor" stroke-width="var(--icon-stroke-width)"/>
<path d="M11.9999 14.875C13.5878 14.875 14.8749 13.5879 14.8749 12C14.8749 10.4122 13.5878 9.12504 11.9999 9.12504C10.4121 9.12504 9.12495 10.4122 9.12495 12C9.12495 13.5879 10.4121 14.875 11.9999 14.875Z" stroke="currentColor" stroke-width="var(--icon-stroke-width)"/>
</svg>
