<svg width="24" height="24" viewBox="0 0 24 24" fill="none" xmlns="http://www.w3.org/2000/svg">
<path d="M9.42861 17.1429H14.5715M12 17.1429V11.1429H10.2857M12 23.1429C18.1541 23.1429 23.1429 18.1541 23.1429 12C23.1429 5.84601 18.1541 0.857178 12 0.857178C5.84601 0.857178 0.857178 5.84601 0.857178 12C0.857178 18.1541 5.84601 23.1429 12 23.1429ZM12 7.28575C11.7633 7.28575 11.5715 7.09387 11.5715 6.85718C11.5715 6.62049 11.7633 6.42861 12 6.42861C12.2367 6.42861 12.4286 6.62049 12.4286 6.85718C12.4286 7.09387 12.2367 7.28575 12 7.28575Z" stroke="currentColor" stroke-linecap="round" stroke-linejoin="round"/>
</svg>
