<svg width="24" height="24" viewBox="0 0 24 24" fill="none" xmlns="http://www.w3.org/2000/svg">
<path d="M12 0.832031C12.272 0.832065 12.5384 0.910226 12.7676 1.05664C12.9928 1.20061 13.1725 1.40518 13.2871 1.64648H13.2881L16.0137 7.14941C16.0168 7.15567 16.0196 7.16257 16.0225 7.16895C16.049 7.22861 16.0908 7.28073 16.1436 7.31934C16.1962 7.35779 16.2585 7.38141 16.3232 7.38867C16.3292 7.38935 16.3358 7.39072 16.3418 7.3916L22.3594 8.28223H22.3584C22.6234 8.318 22.8734 8.42767 23.0791 8.59863C23.235 8.72821 23.3609 8.88943 23.4492 9.07031L23.5244 9.25781C23.6072 9.5149 23.6157 9.7908 23.5479 10.0527C23.4812 10.3099 23.3432 10.5424 23.1514 10.7256L18.8154 15.0293C18.8119 15.0328 18.8083 15.0366 18.8047 15.04C18.7548 15.0866 18.7167 15.1447 18.6953 15.209C18.6738 15.2737 18.6689 15.3427 18.6807 15.4092L18.6816 15.4121L19.7275 21.4629L19.748 21.6631C19.7546 21.8639 19.7188 22.0651 19.6426 22.2529V22.2539C19.5409 22.5037 19.3708 22.7205 19.1523 22.8789C18.9339 23.0372 18.6754 23.1306 18.4062 23.1494C18.1368 23.1683 17.8678 23.1105 17.6299 22.9844V22.9854L12.2227 20.1279C12.1531 20.0943 12.0769 20.0762 12 20.0762C11.9228 20.0762 11.8462 20.094 11.7764 20.1279L6.37109 22.9854L6.37012 22.9844C6.19173 23.0789 5.99623 23.1353 5.7959 23.1494H5.59473C5.32536 23.1308 5.0664 23.0367 4.84766 22.8779C4.6292 22.7195 4.45894 22.503 4.35742 22.2529C4.25593 22.0027 4.22714 21.7288 4.27344 21.4629L5.31836 15.3447L5.31934 15.3408C5.33114 15.274 5.32611 15.2051 5.30469 15.1406C5.28321 15.0762 5.24576 15.0181 5.19629 14.9717L5.19043 14.9658L0.801758 10.7314L0.802734 10.7305C0.604269 10.541 0.463388 10.2991 0.399414 10.0322C0.335253 9.76425 0.350283 9.48333 0.442383 9.22363C0.534581 8.96381 0.700109 8.73602 0.918945 8.56836C1.12872 8.4077 1.37919 8.30996 1.6416 8.2832V8.28223L7.6582 7.3916L7.67676 7.38867C7.74159 7.38142 7.8038 7.35783 7.85645 7.31934C7.9092 7.28072 7.95102 7.22863 7.97754 7.16895L7.98633 7.14941L10.7119 1.64648C10.8265 1.40498 11.007 1.20071 11.2324 1.05664C11.4616 0.910229 11.728 0.832055 12 0.832031Z" fill="currentColor"/>
</svg>
