<svg width="16" height="16" viewBox="0 0 24 24" fill="none" xmlns="http://www.w3.org/2000/svg">
<path d="M18.0001 9.42861V6.85718C18.0001 5.26587 17.368 3.73975 16.2427 2.61454C15.1175 1.48932 13.5914 0.857178 12.0001 0.857178C10.4088 0.857178 8.88268 1.48932 7.75747 2.61454C6.63225 3.73975 6.0001 5.26587 6.0001 6.85718V9.42861M19.7144 9.42861H4.28582C3.33905 9.42861 2.57153 10.1961 2.57153 11.1429V21.4286C2.57153 22.3754 3.33905 23.1429 4.28582 23.1429H19.7144C20.6612 23.1429 21.4287 22.3754 21.4287 21.4286V11.1429C21.4287 10.1961 20.6612 9.42861 19.7144 9.42861ZM12.0001 17.1429C12.4735 17.1429 12.8572 16.7591 12.8572 16.2858C12.8572 15.8124 12.4735 15.4286 12.0001 15.4286C11.5267 15.4286 11.143 15.8124 11.143 16.2858C11.143 16.7591 11.5267 17.1429 12.0001 17.1429Z" stroke="currentColor" stroke-width="var(--icon-stroke-width)" stroke-linecap="round" stroke-linejoin="round"/>
</svg>
