<svg width="24" height="24" viewBox="0 0 24 24" fill="none" xmlns="http://www.w3.org/2000/svg">
<path d="M9.01387 22.6799C9.59124 23.2572 10.4841 23.3006 11.0081 22.7765L22.7765 11.0081C23.3006 10.4841 23.2572 9.59124 22.6799 9.01387L20.7566 7.09061C19.7582 7.62975 18.4185 7.42102 17.4988 6.50127C16.579 5.58154 16.3703 4.24185 16.9095 3.24343L14.9862 1.32017C14.4088 0.742799 13.516 0.69954 12.992 1.22355L1.22355 12.992C0.699539 13.516 0.742799 14.4088 1.32017 14.9862L3.23907 16.9051C4.23946 16.3528 5.59046 16.5583 6.5161 17.484C7.44175 18.4096 7.64724 19.7606 7.09497 20.7611L9.01387 22.6799Z" stroke="currentColor" stroke-linecap="round" stroke-linejoin="round"/>
</svg>
