<svg viewBox="0 0 24 24" fill="none" xmlns="http://www.w3.org/2000/svg">
<path d="M4.28146 9.82296H6.85289L11.0529 3.06867C11.2241 2.79585 11.4617 2.57095 11.7436 2.41503C12.0254 2.25914 12.3422 2.17731 12.6643 2.17725C13.166 2.17723 13.6474 2.37535 14.0038 2.72851C14.3602 3.08167 14.5627 3.56127 14.5672 4.06296V8.96582H21.1672C21.4519 8.96765 21.7329 9.0306 21.9911 9.15039C22.2494 9.27019 22.479 9.44405 22.6643 9.66021C22.8494 9.87636 22.9862 10.1298 23.0651 10.4033C23.1439 10.6769 23.1631 10.9642 23.1215 11.2458L21.75 19.7144C21.6916 20.1872 21.4624 20.6223 21.1056 20.9379C20.7489 21.2536 20.2893 21.4281 19.8129 21.4287H4.28146M0.857178 21.4287V9.82291" stroke="currentColor" stroke-width="var(--icon-stroke-width)" stroke-linecap="round" stroke-linejoin="round"/>
</svg>
