<svg width="16" height="16" viewBox="0 0 24 24" fill="none" xmlns="http://www.w3.org/2000/svg">
<path d="M12.0001 11.1429V10.6429V11.1429ZM14.5715 8.57146H14.0715H14.5715ZM2.57153 22.6429C2.29539 22.6429 2.07153 22.8667 2.07153 23.1429C2.07153 23.419 2.29539 23.6429 2.57153 23.6429V23.1429V22.6429ZM21.4287 23.6429C21.7048 23.6429 21.9287 23.419 21.9287 23.1429C21.9287 22.8667 21.7048 22.6429 21.4287 22.6429V23.1429V23.6429ZM9.42868 8.57146H8.92868C8.92868 9.38606 9.25227 10.1673 9.82828 10.7433L10.1818 10.3897L10.5354 10.0362C10.1469 9.64772 9.92868 9.12084 9.92868 8.57146H9.42868ZM10.1818 10.3897L9.82828 10.7433C10.4043 11.3193 11.1855 11.6429 12.0001 11.6429V11.1429V10.6429C11.4507 10.6429 10.9239 10.4247 10.5354 10.0362L10.1818 10.3897ZM12.0001 11.1429V11.6429C12.8147 11.6429 13.5959 11.3193 14.1719 10.7433L13.8184 10.3897L13.4648 10.0362C13.0764 10.4247 12.5495 10.6429 12.0001 10.6429V11.1429ZM13.8184 10.3897L14.1719 10.7433C14.7479 10.1673 15.0715 9.38606 15.0715 8.57146H14.5715H14.0715C14.0715 9.12084 13.8533 9.64772 13.4648 10.0362L13.8184 10.3897ZM14.5715 8.57146H15.0715C15.0715 7.75687 14.7479 6.97564 14.1719 6.39964L13.8184 6.75319L13.4648 7.10674C13.8533 7.49521 14.0715 8.02209 14.0715 8.57146H14.5715ZM13.8184 6.75319L14.1719 6.39964C13.5959 5.82363 12.8147 5.50003 12.0001 5.50003V6.00003V6.50003C12.5495 6.50003 13.0764 6.71827 13.4648 7.10674L13.8184 6.75319ZM12.0001 6.00003V5.50003C11.1855 5.50003 10.4043 5.82363 9.82828 6.39964L10.1818 6.75319L10.5354 7.10674C10.9239 6.71827 11.4507 6.50003 12.0001 6.50003V6.00003ZM10.1818 6.75319L9.82828 6.39964C9.25227 6.97564 8.92868 7.75687 8.92868 8.57146H9.42868H9.92868C9.92868 8.02209 10.1469 7.49521 10.5354 7.10674L10.1818 6.75319ZM19.7144 8.57146H19.2144C19.2144 10.9533 17.6062 13.62 15.7977 15.7476C14.9048 16.7981 13.987 17.6892 13.245 18.314C12.8733 18.627 12.5526 18.8674 12.3064 19.0265C12.1826 19.1064 12.0863 19.1602 12.0174 19.1922C11.9311 19.2323 11.9381 19.2143 12.0001 19.2143V19.7143V20.2143C12.1693 20.2143 12.3303 20.1495 12.4386 20.0991C12.5643 20.0408 12.7032 19.9606 12.849 19.8665C13.1418 19.6773 13.4974 19.4088 13.8891 19.0789C14.674 18.418 15.6311 17.4876 16.5596 16.3953C18.394 14.2372 20.2144 11.3325 20.2144 8.57146H19.7144ZM12.0001 19.7143V19.2143C12.0621 19.2143 12.0692 19.2323 11.9829 19.1922C11.914 19.1602 11.8176 19.1064 11.6938 19.0265C11.4476 18.8674 11.1269 18.627 10.7552 18.314C10.0133 17.6892 9.09542 16.7981 8.2025 15.7476C6.39403 13.62 4.78582 10.9533 4.78582 8.57146H4.28582H3.78582C3.78582 11.3325 5.60618 14.2372 7.44056 16.3953C8.36907 17.4876 9.32624 18.418 10.1111 19.0789C10.5028 19.4088 10.8584 19.6773 11.1512 19.8665C11.297 19.9606 11.4359 20.0408 11.5616 20.0991C11.6699 20.1495 11.8309 20.2143 12.0001 20.2143V19.7143ZM4.28582 8.57146H4.78582C4.78582 4.58713 8.01577 1.35718 12.0001 1.35718V0.857178V0.357178C7.46348 0.357178 3.78582 4.03484 3.78582 8.57146H4.28582ZM12.0001 0.857178V1.35718C15.9844 1.35718 19.2144 4.58713 19.2144 8.57146H19.7144H20.2144C20.2144 4.03484 16.5367 0.357178 12.0001 0.357178V0.857178ZM2.57153 23.1429V23.6429H21.4287V23.1429V22.6429H2.57153V23.1429Z" fill="currentColor"/>
</svg>
