<svg viewBox="0 0 24 24" fill="none" xmlns="http://www.w3.org/2000/svg">
<path d="M14.5715 7.71432H18.8572L14.5715 12.8572H18.8572M20.5715 15.4286H23.1429L20.5715 18.8572H23.1429M16.0469 1.6148C16.857 1.93071 16.5084 3.12324 15.6649 3.33458C11.8169 4.29876 8.81637 7.81226 8.81637 12C8.81637 16.1878 11.8169 19.7013 15.6649 20.6654C16.5084 20.8768 16.857 22.0694 16.0469 22.3853C14.7924 22.8744 13.4276 23.1429 12 23.1429C5.84601 23.1429 0.857178 18.1541 0.857178 12C0.857178 5.84601 5.84601 0.857178 12 0.857178C13.4276 0.857178 14.7924 1.12563 16.0469 1.6148Z" stroke="currentColor" stroke-width="var(--icon-stroke-width)" stroke-linecap="round" stroke-linejoin="round"/>
</svg>
