<svg width="16" height="16" viewBox="0 0 24 24" fill="none" xmlns="http://www.w3.org/2000/svg">
<path d="M22.9879 6.16524C22.9548 5.98559 22.8841 5.81491 22.7808 5.6643C22.6774 5.51368 22.5435 5.38648 22.3879 5.29096L18.9593 8.71953C18.7993 8.88544 18.6077 9.0174 18.3955 9.10754C18.1834 9.19768 17.9554 9.24413 17.725 9.24413C17.4946 9.24413 17.2664 9.19768 17.0544 9.10754C16.8423 9.0174 16.6506 8.88544 16.4907 8.71953L15.1878 7.55382C14.8737 7.23336 14.6978 6.80253 14.6978 6.35382C14.6978 5.9051 14.8737 5.47427 15.1878 5.15382L18.6164 1.72524C18.5417 1.54959 18.4292 1.39252 18.2869 1.26513C18.1448 1.13775 17.9763 1.04318 17.7936 0.988098C16.5973 0.749538 15.3581 0.851654 14.217 1.28282C13.0759 1.71399 12.0788 2.45688 11.3392 3.42693C10.5996 4.39698 10.1472 5.55518 10.0336 6.7697C9.92715 7.9074 10.1219 9.05171 10.5965 10.0882L1.39639 19.2883C0.717245 19.9675 0.728508 21.072 1.42136 21.7371L2.38269 22.6601C3.05324 23.3038 4.11464 23.2957 4.77548 22.6421L14.0812 13.4372C15.0877 13.8528 16.184 14.0109 17.2704 13.8945C18.4717 13.7657 19.6138 13.3063 20.5695 12.5672C21.5252 11.8282 22.2572 10.8385 22.6843 9.70831C23.1111 8.5781 23.2162 7.35162 22.9879 6.16524Z" stroke="currentColor" stroke-width="var(--icon-stroke-width)" stroke-linecap="round" stroke-linejoin="round"/>
</svg>
