<svg viewBox="0 0 24 24" fill="none" xmlns="http://www.w3.org/2000/svg">
<path d="M12.0001 22.2858V12.0001M7.17045 6.50008C5.21407 6.50008 3.72511 1.71436 7.81257 1.71436C10.3251 1.71436 12.0001 5.06436 12.0001 6.50008C12.0001 5.06436 13.6751 1.71436 16.1876 1.71436C20.2751 1.71436 18.7861 6.50008 16.8297 6.50008M21.044 20.5715V11.8157H2.9557V20.5715C2.9557 21.5183 3.72322 22.2858 4.66999 22.2858H19.3297C20.2765 22.2858 21.044 21.5183 21.044 20.5715ZM22.2858 8.21429V10.1014C22.2858 11.0482 21.5183 11.8157 20.5715 11.8157H3.42864C2.48188 11.8157 1.71436 11.0482 1.71436 10.1014V8.21429C1.71436 7.26751 2.48188 6.50001 3.42864 6.50001H20.5715C21.5183 6.50001 22.2858 7.26751 22.2858 8.21429Z" stroke="currentColor" stroke-width="var(--icon-stroke-width)" stroke-linecap="round" stroke-linejoin="round"/>
</svg>
