<svg width="16" height="16" viewBox="0 0 24 24" fill="none" xmlns="http://www.w3.org/2000/svg">
<path d="M18.0001 22.2857V15.4285C18.0001 15.2012 17.9097 14.9832 17.7491 14.8224C17.5883 14.6617 17.3702 14.5714 17.1429 14.5714H6.85721C6.62988 14.5714 6.41186 14.6617 6.25113 14.8224C6.09038 14.9832 6.00007 15.2012 6.00007 15.4285V22.2857M18.0001 1.71423V6.85709C18.0001 7.08442 17.9097 7.30244 17.7491 7.46318C17.5883 7.62392 17.3702 7.71423 17.1429 7.71423H10.2858C10.0585 7.71423 9.84043 7.62392 9.6797 7.46318C9.51895 7.30244 9.42864 7.08442 9.42864 6.85709V1.71423M22.2858 20.5714C22.2858 21.026 22.1051 21.4621 21.7837 21.7835C21.4622 22.105 21.0261 22.2857 20.5715 22.2857H3.42864C2.97398 22.2857 2.53795 22.105 2.21645 21.7835C1.89497 21.4621 1.71436 21.026 1.71436 20.5714V9.27423C1.71624 8.82451 1.8948 8.39354 2.2115 8.07423L8.07436 2.21138C8.39366 1.89468 8.82463 1.71612 9.27435 1.71423H20.5715C21.0261 1.71423 21.4622 1.89485 21.7837 2.21633C22.1051 2.53783 22.2858 2.97386 22.2858 3.42852V20.5714Z" stroke="currentColor" stroke-width="var(--icon-stroke-width)" stroke-linecap="round" stroke-linejoin="round"/>
</svg>
