<svg width="16" height="16" viewBox="0 0 24 24" fill="none" xmlns="http://www.w3.org/2000/svg">
<path d="M1.71436 10.2858H22.2858M6.00007 1.71436V6.85721M18.0001 1.71436V6.85721M3.42864 4.28578C2.97398 4.28578 2.53795 4.4664 2.21645 4.78788C1.89497 5.10938 1.71436 5.54541 1.71436 6.00007V20.5715C1.71436 21.0261 1.89497 21.4622 2.21645 21.7837C2.53795 22.1051 2.97398 22.2858 3.42864 22.2858H20.5715C21.0261 22.2858 21.4622 22.1051 21.7837 21.7837C22.1051 21.4622 22.2858 21.0261 22.2858 20.5715V6.00007C22.2858 5.54541 22.1051 5.10938 21.7837 4.78788C21.4622 4.4664 21.0261 4.28578 20.5715 4.28578H3.42864Z" stroke="currentColor" stroke-width="var(--icon-stroke-width)" stroke-linecap="round" stroke-linejoin="round"/>
</svg>
