<svg width="24" height="24" viewBox="0 0 24 24" fill="none" xmlns="http://www.w3.org/2000/svg">
<path d="M6.40085 12L1.38689 14.5019C1.06847 14.675 0.857422 15.0443 0.857422 15.4286C0.857422 15.8128 1.06847 16.1821 1.38689 16.3552L11.1915 21.2477C11.4466 21.367 11.7218 21.4286 12 21.4286C12.2781 21.4286 12.5533 21.367 12.8084 21.2475L22.6131 16.3551C22.9315 16.1821 23.1425 15.8128 23.1425 15.4286C23.1425 15.0444 22.9315 14.675 22.6131 14.502L17.599 12M12.8084 2.75235C12.5533 2.63301 12.2781 2.57141 12 2.57141C11.7218 2.57141 11.4466 2.63295 11.1915 2.75232L1.38689 7.64481C1.06847 7.81785 0.857422 8.18719 0.857422 8.57141C0.857422 8.95563 1.06847 9.32498 1.38689 9.49802L11.1915 14.3905C11.4466 14.5099 11.7218 14.5714 12 14.5714C12.2781 14.5714 12.5533 14.5098 12.8084 14.3905L22.6131 9.49797C22.9315 9.32494 23.1425 8.95569 23.1425 8.57146C23.1425 8.18722 22.9315 7.81788 22.6131 7.64486L12.8084 2.75235Z" stroke="currentColor" stroke-linecap="round" stroke-linejoin="round"/>
</svg>
