<svg viewBox="0 0 24 24" fill="none" xmlns="http://www.w3.org/2000/svg">
<path d="M12.0001 23.5V18.7084M12.0001 18.7084C14.3186 18.7084 16.2525 17.0617 16.6961 14.8741C16.7279 14.8748 16.7597 14.875 16.7917 14.875C19.4381 14.875 21.5834 12.7297 21.5834 10.0834C21.5834 7.43701 19.4381 5.29171 16.7917 5.29171C16.7597 5.29171 16.7279 5.29202 16.6961 5.29265C16.2525 3.10503 14.3186 1.45837 12.0001 1.45837C9.68159 1.45837 7.74768 3.10503 7.30408 5.29265C7.27226 5.29202 7.24038 5.29171 7.20842 5.29171C4.56205 5.29171 2.41675 7.43701 2.41675 10.0834C2.41675 12.7297 4.56205 14.875 7.20842 14.875C7.24038 14.875 7.27227 14.8748 7.30408 14.8741C7.74768 17.0617 9.68159 18.7084 12.0001 18.7084Z" stroke="currentColor" stroke-width="var(--icon-stroke-width)"/>
</svg>
